# xmcd CD database file
# Copyright (C) 1997 Ti Kan
#
# Track frame offsets:
#  183
#  9070
#  18385
#  28293
#  45193
#  62613
#  79110
#  89703
#  105728
#  116758
#  125560
#  137170
#  148553
#  159258
#  173070
#  182488
#  193853
#  207448
#  214440
#  221863
#  236288
#  248140
#  255478
#  262978
#
# Disc length: 3716 seconds
#
# Revision: 1
# Processed by: cddbd v1.4b41PL1 Copyright (c) Steve Scherf et al.
# Submitted via: CDWizzard Release:4.22
#
DISCID=530e8218
DTITLE=International Symphony Orchestra - A Ticket To Spain
DYEAR=1900
DGENRE=
TTITLE0=Espana
TTITLE1=Cordoba
TTITLE2=Fiesta In Madrid
TTITLE3=Capricioso Espanol
TTITLE4=Rayo Lunar Espanol
TTITLE5=Viva Nivara
TTITLE6=Ay Ay Ay
TTITLE7=La Paloma
TTITLE8=Serenata Espanol
TTITLE9=Gypsy Dance Espanol
TTITLE10=L'Estrudiantino
TTITLE11=Estrellita
TTITLE12=Motivo Del Matador
TTITLE13=Fiesta de Mejico
TTITLE14=La Caporal
TTITLE15=Buenos Noches Mi Amor
TTITLE16=Gitana Mexicana
TTITLE17=Ole Ole
TTITLE18=Modo Espanol
TTITLE19=Cubu Cubu
TTITLE20=Danza Sonora
TTITLE21=Tuna Juna
TTITLE22=Clavelito
TTITLE23=Below the Rio Grand
EXTD=1997 Compose
EXTT0=
EXTT1=
EXTT2=
EXTT3=
EXTT4=
EXTT5=
EXTT6=
EXTT7=
EXTT8=
EXTT9=
EXTT10=
EXTT11=
EXTT12=
EXTT13=
EXTT14=
EXTT15=
EXTT16=
EXTT17=
EXTT18=
EXTT19=
EXTT20=
EXTT21=
EXTT22=
EXTT23=
PLAYORDER=
